<svg id="Layer_1" data-name="Layer 1" xmlns="http://www.w3.org/2000/svg" viewBox="0 0 1000 200.05"><defs><style>.cls-1{fill:#2a5ada;}</style></defs><title>Artboard 1</title><path class="cls-1" d="M203.57,99.46c0-20.38,15.27-32.65,31.5-32.65,15.89,0,25.33,9.36,28.15,20.29l-10,3.36c-1.85-7.59-7.68-13.68-18.18-13.68-10.32,0-20.65,7.5-20.65,22.68,0,14.65,10.06,22.41,20.74,22.41,10.5,0,16.5-6.7,18.62-13.76l9.7,3.17C260.66,121.87,251.13,132,235.16,132,218.31,132,203.57,119.84,203.57,99.46Z"/><path class="cls-1" d="M282.73,130.7H272.5V66.81h10.23V91.87c2.91-3.79,7.77-5.38,12.27-5.38,10.58,0,15.7,7.59,15.7,17V130.7H300.47V105.28c0-5.29-2.39-9.53-8.83-9.53-5.64,0-8.73,4.24-8.91,9.71Z"/><path class="cls-1" d="M333.47,106.08l11-1.68c2.47-.35,3.18-1.59,3.18-3.09,0-3.62-2.47-6.53-8.12-6.53-5.38,0-8.38,3.44-8.82,7.77l-9.35-2.12c.79-7.41,7.5-14,18.08-14,13.24,0,18.27,7.5,18.27,16.06v21.35a38.77,38.77,0,0,0,.53,6.89h-9.53a23.91,23.91,0,0,1-.44-5.48c-2,3.27-6.27,6.8-13.23,6.8-9,0-14.57-6.18-14.57-13C320.5,111.37,326.15,107.14,333.47,106.08Zm14.21,6.79v-1.94l-11.2,1.68c-3.18.53-5.74,2.29-5.74,5.82,0,2.91,2.21,5.56,6.26,5.56C342.74,124,347.68,121.25,347.68,112.87Z"/><path class="cls-1" d="M375.13,65.93a6.7,6.7,0,0,1,6.71,6.71,6.67,6.67,0,1,1-6.71-6.71Zm-5,64.77v-43h10.15v43Z"/><path class="cls-1" d="M403.72,130.7H393.49v-43h10v5.74a14.26,14.26,0,0,1,12.7-7c10.51,0,15.53,7.59,15.53,17V130.7H421.46V105.28c0-5.29-2.38-9.53-8.83-9.53-5.82,0-8.91,4.5-8.91,10.15Z"/><path class="cls-1" d="M444.14,130.7V66.81h10.24V130.7Z"/><path class="cls-1" d="M472.65,65.93a6.7,6.7,0,0,1,6.7,6.71,6.66,6.66,0,0,1-13.32,0A6.69,6.69,0,0,1,472.65,65.93Zm-5,64.77v-43h10.15v43Z"/><path class="cls-1" d="M501.24,130.7H491v-43h10v5.74a14.25,14.25,0,0,1,12.7-7c10.5,0,15.53,7.59,15.53,17V130.7H519V105.28c0-5.29-2.39-9.53-8.83-9.53-5.82,0-8.91,4.5-8.91,10.15Z"/><path class="cls-1" d="M564.25,105.9l18,24.8H569.72L557.1,113.14l-5.29,5.56v12H541.66V66.81h10.15v38.3l16.5-17.39H581.9Z"/><path class="cls-1" d="M640.4,66.81c16.42,0,31.86,12.09,31.86,32.56S656.82,132,640.4,132s-31.76-12.09-31.76-32.65S624,66.81,640.4,66.81Zm0,55.15c10.59,0,21-7.5,21-22.59S651,76.78,640.4,76.78s-20.91,7.5-20.91,22.59S629.91,122,640.4,122Z"/><path class="cls-1" d="M682.59,147.46V87.72h9.89v5.83c2.11-3.71,7.06-6.79,13.67-6.79,12.71,0,19.86,9.7,19.86,22.41,0,12.88-7.86,22.58-20.21,22.58-6.18,0-10.85-2.64-13.06-5.91v21.62Zm21.62-51.62c-6.7,0-11.56,5.3-11.56,13.33,0,8.2,4.86,13.5,11.56,13.5s11.56-5.3,11.56-13.5C715.77,101.14,711.1,95.84,704.21,95.84Z"/><path class="cls-1" d="M773.93,118.43c-2.3,7.5-9.09,13.59-19.42,13.59-11.64,0-22-8.47-22-23,0-13.59,10.06-22.59,20.92-22.59,13.23,0,21,8.73,21,22.33a14.9,14.9,0,0,1-.27,3.26H742.78a11.5,11.5,0,0,0,11.73,11.21c6.18,0,9.36-3.27,10.77-7.5Zm-9.8-13.94c-.18-5-3.53-9.53-10.59-9.53a10.32,10.32,0,0,0-10.5,9.53Z"/><path class="cls-1" d="M809.41,97.87a22,22,0,0,0-3.36-.26c-7.94,0-11.56,4.58-11.56,12.61V130.7H784.26v-43h10v6.89c2-4.68,6.79-7.41,12.44-7.41a14.62,14.62,0,0,1,2.74.26Z"/><path class="cls-1" d="M828.38,106.08l11-1.68c2.47-.35,3.18-1.59,3.18-3.09,0-3.62-2.47-6.53-8.12-6.53-5.38,0-8.38,3.44-8.82,7.77l-9.36-2.12c.8-7.41,7.5-14,18.09-14,13.24,0,18.27,7.5,18.27,16.06v21.35a38.77,38.77,0,0,0,.53,6.89h-9.53a23.91,23.91,0,0,1-.44-5.48c-2,3.27-6.27,6.8-13.24,6.8-9,0-14.56-6.18-14.56-13C815.41,111.37,821.06,107.14,828.38,106.08Zm14.21,6.79v-1.94l-11.21,1.68c-3.18.53-5.73,2.29-5.73,5.82,0,2.91,2.2,5.56,6.26,5.56C837.65,124,842.59,121.25,842.59,112.87Z"/><path class="cls-1" d="M877.8,87.72h8.91v9.09H877.8v19.94c0,3.8,1.68,5.39,5.47,5.39a21.46,21.46,0,0,0,3.53-.36v8.48a16.21,16.21,0,0,1-6.26,1c-7.94,0-12.89-4.77-12.89-12.8V96.81h-7.94V87.72h2.21c4.58,0,6.62-2.91,6.62-6.7V74.58h9.26Z"/><path class="cls-1" d="M938,109.17c0,13.23-9.44,22.85-22.32,22.85s-22.24-9.62-22.24-22.85,9.45-22.77,22.24-22.77S938,96,938,109.17Zm-10.32,0c0-8.92-5.65-13.5-12-13.5s-12,4.58-12,13.5,5.74,13.67,12,13.67S927.66,118.16,927.66,109.17Z"/><path class="cls-1" d="M973,97.87a21.74,21.74,0,0,0-3.35-.26c-7.94,0-11.56,4.58-11.56,12.61V130.7H947.88v-43h10v6.89c2-4.68,6.79-7.41,12.44-7.41a14.48,14.48,0,0,1,2.73.26Z"/><path class="cls-1" d="M90.44,49.55,134.71,75l.12,51L90.68,151.63,46.41,126.22l-.12-51L90.44,49.55M90.35,12,74.13,21.45,30,47.08,13.76,56.49l.05,18.76.12,51,0,18.76,16.27,9.34L74.5,179.81l16.27,9.34L107,179.73l44.14-25.62,16.23-9.42-.05-18.75-.12-51,0-18.75L150.88,46.8,106.62,21.38,90.35,12Z"/></svg>