<?xml version="1.0" encoding="UTF-8"?>
<svg width="70px" height="70px" viewBox="0 0 70 70" version="1.1" xmlns="http://www.w3.org/2000/svg" xmlns:xlink="http://www.w3.org/1999/xlink">
    <title>Fill 1</title>
    <desc>Created with Sketch.</desc>
    <g id="Operator" stroke="none" stroke-width="1" fill="none" fill-rule="evenodd">
        <g id="Dashboard-No-Graph---Blank-Slate" transform="translate(-147.000000, -249.000000)" fill="#5A6169">
            <g id="Group-3" transform="translate(147.000000, 249.000000)">
                <path d="M54.0904752,35.0003977 C54.0904752,45.5289144 45.5283971,54.0910899 35,54.0910899 C30.8828208,54.0910899 27.0774528,52.7674686 23.9561601,50.5434029 L50.5428286,23.9564323 C52.7668689,27.0777605 54.0904752,30.8831718 54.0904752,35.0003977 M15.9095248,35.0003977 C15.9095248,24.471881 24.4716029,15.9097056 35,15.9097056 C39.1171792,15.9097056 42.9225472,17.2333269 46.0438399,19.4573925 L19.4571714,46.0443631 C17.2331311,42.923035 15.9095248,39.1176237 15.9095248,35.0003977 M69.066953,0.933057579 C67.8228904,-0.311019193 65.812027,-0.311019193 64.5679644,0.933057579 L50.5905548,14.910626 C46.2824709,11.5602095 40.8830481,9.54614152 35,9.54614152 C20.9430467,9.54614152 9.54603304,20.9432847 9.54603304,35.0003977 C9.54603304,40.8835127 11.5600782,46.2829968 14.9104566,50.5911296 L0.933046976,64.5686981 C-0.311015659,65.8127749 -0.311015659,67.8236611 0.933046976,69.0677379 C1.55348742,69.6881854 2.36801436,70 3.18254131,70 C3.99706825,70 4.81159519,69.6881854 5.43203564,69.0677379 L19.4094452,55.0901694 C23.7207109,58.4405859 29.1169519,60.4546539 35,60.4546539 C49.0569533,60.4546539 60.453967,49.0575107 60.453967,35.0003977 C60.453967,29.1172828 58.4399218,23.7209804 55.0895434,19.4096658 L69.066953,5.43209736 C70.3110157,4.18802059 70.3110157,2.17713435 69.066953,0.933057579" id="Fill-1"></path>
            </g>
        </g>
    </g>
</svg>
