<?xml version="1.0" encoding="utf-8"?>
<!-- Generator: Adobe Illustrator 23.0.6, SVG Export Plug-In . SVG Version: 6.00 Build 0)  -->
<svg version="1.1" id="Layer_1" xmlns="http://www.w3.org/2000/svg" xmlns:xlink="http://www.w3.org/1999/xlink" x="0px" y="0px"
	 viewBox="0 0 227 41" style="enable-background:new 0 0 227 41;" xml:space="preserve">
<style type="text/css">
	.st0{fill:#2A5ADA;}
</style>
<g>
	<path class="st0" d="M40.3,20c0-3.6,2.7-5.8,5.6-5.8c2.8,0,4.5,1.6,5,3.6L49,18.4c-0.3-1.3-1.4-2.4-3.2-2.4c-1.8,0-3.6,1.3-3.6,4
		c0,2.6,1.8,4,3.7,4c1.9,0,2.9-1.2,3.3-2.4l1.7,0.6c-0.5,1.9-2.2,3.7-5,3.7C42.9,25.7,40.3,23.6,40.3,20z"/>
	<path class="st0" d="M54.2,25.5h-1.8V14.2h1.8v4.4c0.5-0.7,1.4-0.9,2.2-0.9c1.9,0,2.8,1.3,2.8,3v4.8h-1.8V21c0-0.9-0.4-1.7-1.6-1.7
		c-1,0-1.5,0.7-1.6,1.7V25.5z"/>
	<path class="st0" d="M63.2,21.2l1.9-0.3c0.4-0.1,0.6-0.3,0.6-0.5c0-0.6-0.4-1.2-1.4-1.2c-0.9,0-1.5,0.6-1.6,1.4l-1.6-0.4
		c0.1-1.3,1.3-2.5,3.2-2.5c2.3,0,3.2,1.3,3.2,2.8v3.8c0,0.7,0.1,1.1,0.1,1.2h-1.7c0,0-0.1-0.4-0.1-1c-0.4,0.6-1.1,1.2-2.3,1.2
		c-1.6,0-2.6-1.1-2.6-2.3C60.9,22.1,61.9,21.4,63.2,21.2z M65.7,22.4V22l-2,0.3c-0.6,0.1-1,0.4-1,1c0,0.5,0.4,1,1.1,1
		C64.8,24.3,65.7,23.8,65.7,22.4z"/>
	<path class="st0" d="M70.5,14.1c0.7,0,1.2,0.5,1.2,1.2c0,0.7-0.5,1.2-1.2,1.2c-0.6,0-1.2-0.5-1.2-1.2
		C69.4,14.6,69.9,14.1,70.5,14.1z M69.6,25.5v-7.6h1.8v7.6H69.6z"/>
	<path class="st0" d="M75.6,25.5h-1.8v-7.6h1.8v1c0.5-0.9,1.4-1.2,2.2-1.2c1.9,0,2.7,1.3,2.7,3v4.8h-1.8V21c0-0.9-0.4-1.7-1.6-1.7
		c-1,0-1.6,0.8-1.6,1.8V25.5z"/>
	<path class="st0" d="M82.7,25.5V14.2h1.8v11.3H82.7z"/>
	<path class="st0" d="M87.7,14.1c0.7,0,1.2,0.5,1.2,1.2c0,0.7-0.5,1.2-1.2,1.2c-0.6,0-1.2-0.5-1.2-1.2
		C86.6,14.6,87.1,14.1,87.7,14.1z M86.8,25.5v-7.6h1.8v7.6H86.8z"/>
	<path class="st0" d="M92.8,25.5H91v-7.6h1.8v1c0.5-0.9,1.4-1.2,2.2-1.2c1.9,0,2.7,1.3,2.7,3v4.8h-1.8V21c0-0.9-0.4-1.7-1.6-1.7
		c-1,0-1.6,0.8-1.6,1.8V25.5z"/>
	<path class="st0" d="M103.9,21.1l3.2,4.4h-2.2l-2.2-3.1l-0.9,1v2.1h-1.8V14.2h1.8V21l2.9-3.1h2.4L103.9,21.1z"/>
	<path class="st0" d="M112.4,25.5v-11h6.8v1.7h-4.9v2.9h4.5v1.7h-4.5v2.9h4.9v1.7H112.4z"/>
	<path class="st0" d="M123,21.7l-2.7-3.7h2.1c0.1,0.2,1.5,2.2,1.7,2.4l1.6-2.4h2.1l-2.7,3.7l2.8,3.9h-2.1l-1.8-2.5
		c-0.2,0.2-1.6,2.3-1.7,2.5h-2.1L123,21.7z"/>
	<path class="st0" d="M129.3,28.5V17.9h1.7v1c0.4-0.7,1.2-1.2,2.4-1.2c2.2,0,3.5,1.7,3.5,4c0,2.3-1.4,4-3.6,4c-1.1,0-1.9-0.5-2.3-1
		v3.8H129.3z M133.1,19.4c-1.2,0-2,0.9-2,2.3c0,1.4,0.9,2.4,2,2.4c1.2,0,2-0.9,2-2.4C135.1,20.3,134.3,19.4,133.1,19.4z"/>
	<path class="st0" d="M138.7,25.5V14.2h1.8v11.3H138.7z"/>
	<path class="st0" d="M150.1,21.7c0,2.3-1.7,4-3.9,4c-2.3,0-3.9-1.7-3.9-4c0-2.3,1.7-4,3.9-4C148.4,17.7,150.1,19.4,150.1,21.7z
		 M148.2,21.7c0-1.6-1-2.4-2.1-2.4c-1.1,0-2.1,0.8-2.1,2.4s1,2.4,2.1,2.4C147.2,24.1,148.2,23.3,148.2,21.7z"/>
	<path class="st0" d="M156.2,19.7c-0.2,0-0.4,0-0.6,0c-1.4,0-2,0.8-2,2.2v3.6h-1.8v-7.6h1.8v1.2c0.4-0.8,1.2-1.3,2.2-1.3
		c0.2,0,0.4,0,0.5,0V19.7z"/>
	<path class="st0" d="M164.4,23.3c-0.4,1.3-1.6,2.4-3.4,2.4c-2.1,0-3.9-1.5-3.9-4.1c0-2.4,1.8-4,3.7-4c2.3,0,3.7,1.5,3.7,3.9
		c0,0.3,0,0.5,0,0.6h-5.5c0,1.2,0.9,2,2.1,2c1.1,0,1.6-0.6,1.9-1.3L164.4,23.3z M162.6,20.9c0-0.9-0.6-1.7-1.9-1.7
		c-1.1,0-1.8,0.9-1.9,1.7H162.6z"/>
	<path class="st0" d="M170.6,19.7c-0.2,0-0.4,0-0.6,0c-1.4,0-2,0.8-2,2.2v3.6h-1.8v-7.6h1.8v1.2c0.4-0.8,1.2-1.3,2.2-1.3
		c0.2,0,0.4,0,0.5,0V19.7z"/>
	<path class="st0" d="M182.6,22.7H178l-1,2.8h-2l4.3-11h2.2l4.3,11h-2L182.6,22.7z M178.6,21h3.4l-1.7-4.5L178.6,21z"/>
	<path class="st0" d="M193.9,24.1c0,0.7,0.1,1.3,0.1,1.4h-1.7c0-0.2-0.1-0.7-0.1-1c-0.4,0.6-1.2,1.2-2.2,1.2c-2.2,0-3.6-1.7-3.6-4
		c0-2.2,1.5-4,3.6-4c1.3,0,2,0.6,2.2,1.1v-4.6h1.8V24.1z M190.1,24.1c1.2,0,2-1,2-2.4c0-1.4-0.8-2.3-2-2.3s-2.1,0.9-2.1,2.4
		S188.9,24.1,190.1,24.1z"/>
	<path class="st0" d="M196.2,25.5v-7.6h1.7v1c0.4-0.8,1.4-1.2,2.2-1.2c1,0,1.9,0.5,2.3,1.3c0.6-1,1.5-1.3,2.5-1.3
		c1.4,0,2.7,0.9,2.7,2.9v4.9h-1.7v-4.6c0-0.9-0.5-1.6-1.5-1.6c-0.9,0-1.6,0.7-1.6,1.7v4.5h-1.8v-4.6c0-0.9-0.4-1.6-1.5-1.6
		c-1,0-1.6,0.7-1.6,1.7v4.5H196.2z"/>
	<path class="st0" d="M210.7,14.1c0.7,0,1.2,0.5,1.2,1.2c0,0.7-0.5,1.2-1.2,1.2c-0.6,0-1.2-0.5-1.2-1.2
		C209.5,14.6,210.1,14.1,210.7,14.1z M209.8,25.5v-7.6h1.8v7.6H209.8z"/>
	<path class="st0" d="M215.8,25.5h-1.8v-7.6h1.8v1c0.5-0.9,1.4-1.2,2.2-1.2c1.9,0,2.7,1.3,2.7,3v4.8h-1.8V21c0-0.9-0.4-1.7-1.6-1.7
		c-1,0-1.6,0.8-1.6,1.8V25.5z"/>
</g>
<g>
	<path class="st0" d="M18.9,11.2l7.8,4.5l0,9L19,29.2l-7.8-4.5l0-9L18.9,11.2 M18.9,4.6L16,6.2l-7.8,4.5l-2.9,1.7l0,3.3l0,9l0,3.3
		l2.9,1.6l7.8,4.5l2.9,1.6l2.9-1.7l7.8-4.5l2.9-1.7l0-3.3l0-9l0-3.3l-2.9-1.6l-7.8-4.5L18.9,4.6L18.9,4.6z"/>
</g>
</svg>
