<?xml version="1.0" encoding="utf-8"?>
<!-- Generator: Adobe Illustrator 23.0.1, SVG Export Plug-In . SVG Version: 6.00 Build 0)  -->
<svg version="1.1" id="Layer_1" xmlns="http://www.w3.org/2000/svg" xmlns:xlink="http://www.w3.org/1999/xlink" x="0px" y="0px"
	 viewBox="0 0 33 33" style="enable-background:new 0 0 33 33;" xml:space="preserve">
<style type="text/css">
	.st0{filter:url(#Adobe_OpacityMaskFilter);}
	.st1{fill-rule:evenodd;clip-rule:evenodd;fill:#FFFFFF;}
	.st2{mask:url(#mask-2_1_);fill-rule:evenodd;clip-rule:evenodd;fill:#FFFFFF;}
</style>
<title>Page 1</title>
<desc>Created with Sketch.</desc>
<g id="Symbols">
	<g id="Nav-Top" transform="translate(-2121.000000, -50.000000)">
		<g id="Group" transform="translate(2104.000000, 36.000000)">
			<g id="Page-1" transform="translate(17.525000, 14.744792)">
				<g id="Clip-2">
				</g>
				<defs>
					<filter id="Adobe_OpacityMaskFilter" filterUnits="userSpaceOnUse" x="3" y="0" width="26.3" height="32">
						<feColorMatrix  type="matrix" values="1 0 0 0 0  0 1 0 0 0  0 0 1 0 0  0 0 0 1 0"/>
					</filter>
				</defs>
				<mask maskUnits="userSpaceOnUse" x="3" y="0" width="26.3" height="32" id="mask-2_1_">
					<g class="st0">
						<polygon id="path-1_1_" class="st1" points="3,0 37.2,0 37.2,41.4 3,41.4 						"/>
					</g>
				</mask>
				<path id="Fill-1" class="st2" d="M15.2,32h-1.9v-2h-1.2c-3.5,0-6.3-2.9-6.3-6.4v-2H5.7c-0.9,0-1.7-0.4-2.2-1.2
					C3,19.7,2.9,18.8,3.2,18l3-9.2c0,0,0,0,0,0c1.5-5.6,6.7-9.3,12.5-8.7c5.6,0.5,10.1,5,10.6,10.6c0.2,1.7,0,3.3-0.5,4.9l0,0.1
					c-1.5,4.8-2.1,9.9-1.6,15.2l0.1,1.2h-1.9l-0.1-1c-0.5-5.5,0-10.9,1.7-15.9l0-0.1c0.4-1.3,0.6-2.7,0.4-4.1
					c-0.5-4.7-4.2-8.5-8.9-8.9C13.6,1.5,9.2,4.6,8,9.3c0,0,0,0.1,0,0.1l-3,9.2c-0.1,0.2,0,0.5,0.1,0.7c0.2,0.2,0.4,0.3,0.6,0.3h2
					v3.9c0,2.5,2,4.4,4.4,4.4c0,0,2.1,0,2.2,0c0.3,0,0.5,0.1,0.7,0.3c0.2,0.2,0.3,0.4,0.3,0.7V32z M11.6,13.4c-1.1,0-2,0.9-2,2
					c0,1.1,0.9,2,2,2c1.1,0,2-0.9,2-2C13.5,14.2,12.7,13.4,11.6,13.4z"/>
			</g>
		</g>
	</g>
</g>
</svg>
