<?xml version="1.0" encoding="utf-8"?>
<!-- Generator: Adobe Illustrator 23.0.2, SVG Export Plug-In . SVG Version: 6.00 Build 0)  -->
<svg version="1.1" id="Layer_1" xmlns="http://www.w3.org/2000/svg" xmlns:xlink="http://www.w3.org/1999/xlink" x="0px" y="0px"
	 viewBox="0 0 500 133.3" style="enable-background:new 0 0 500 133.3;" xml:space="preserve">
<style type="text/css">
	.st0{fill:#2A5ADA;}
</style>
<g>
	<path class="st0" d="M122.9,65.3c0-9.7,7.3-15.6,15.1-15.6c7.6,0,12.1,4.5,13.5,9.7l-4.8,1.6c-0.9-3.6-3.7-6.5-8.7-6.5
		c-4.9,0-9.9,3.6-9.9,10.8c0,7,4.8,10.7,9.9,10.7c5,0,7.9-3.2,8.9-6.6l4.6,1.5c-1.3,5.1-5.9,9.9-13.5,9.9
		C129.9,80.9,122.9,75.1,122.9,65.3z"/>
	<path class="st0" d="M160.7,80.3h-4.9V49.7h4.9v12c1.4-1.8,3.7-2.6,5.9-2.6c5.1,0,7.5,3.6,7.5,8.1v13h-4.9V68.1
		c0-2.5-1.1-4.6-4.2-4.6c-2.7,0-4.2,2-4.3,4.6V80.3z"/>
	<path class="st0" d="M185,68.5l5.3-0.8c1.2-0.2,1.5-0.8,1.5-1.5c0-1.7-1.2-3.1-3.9-3.1c-2.6,0-4,1.6-4.2,3.7l-4.5-1
		c0.4-3.5,3.6-6.7,8.6-6.7c6.3,0,8.7,3.6,8.7,7.7V77c0,1.9,0.2,3.1,0.3,3.3h-4.6c0-0.1-0.2-1-0.2-2.6c-1,1.6-3,3.2-6.3,3.2
		c-4.3,0-7-3-7-6.2C178.8,71,181.5,69,185,68.5z M191.7,71.7v-0.9l-5.4,0.8c-1.5,0.3-2.7,1.1-2.7,2.8c0,1.4,1.1,2.7,3,2.7
		C189.4,77,191.7,75.7,191.7,71.7z"/>
	<path class="st0" d="M204.9,49.3c1.8,0,3.2,1.4,3.2,3.2c0,1.8-1.4,3.2-3.2,3.2c-1.7,0-3.2-1.4-3.2-3.2
		C201.7,50.7,203.1,49.3,204.9,49.3z M202.5,80.3V59.7h4.9v20.5H202.5z"/>
	<path class="st0" d="M218.5,80.3h-4.9V59.7h4.8v2.7c1.3-2.4,3.8-3.3,6.1-3.3c5,0,7.4,3.6,7.4,8.1v13H227V68.1
		c0-2.5-1.1-4.6-4.2-4.6c-2.8,0-4.3,2.2-4.3,4.9V80.3z"/>
	<path class="st0" d="M237.8,80.3V49.7h4.9v30.5H237.8z"/>
	<path class="st0" d="M251.5,49.3c1.8,0,3.2,1.4,3.2,3.2c0,1.8-1.4,3.2-3.2,3.2c-1.7,0-3.2-1.4-3.2-3.2
		C248.3,50.7,249.7,49.3,251.5,49.3z M249.1,80.3V59.7h4.9v20.5H249.1z"/>
	<path class="st0" d="M265.1,80.3h-4.9V59.7h4.8v2.7c1.4-2.4,3.8-3.3,6.1-3.3c5,0,7.4,3.6,7.4,8.1v13h-4.9V68.1
		c0-2.5-1.1-4.6-4.2-4.6c-2.8,0-4.3,2.2-4.3,4.9V80.3z"/>
	<path class="st0" d="M295.2,68.4l8.6,11.8h-6l-6-8.4l-2.5,2.7v5.7h-4.9V49.7h4.9V68l7.9-8.3h6.5L295.2,68.4z"/>
	<path class="st0" d="M318.3,80.3V50.4h18.5v4.7h-13.4V63h12.1v4.6h-12.1v7.9h13.4v4.7H318.3z"/>
	<path class="st0" d="M347.2,69.9l-7.3-10.2h5.8c0.4,0.6,4.1,6,4.5,6.6l4.5-6.6h5.6L353,69.8l7.5,10.5h-5.7l-4.8-6.9
		c-0.4,0.6-4.3,6.2-4.6,6.9h-5.6L347.2,69.9z"/>
	<path class="st0" d="M364,88.3V59.7h4.7v2.8c1-1.8,3.4-3.2,6.5-3.2c6.1,0,9.5,4.6,9.5,10.7c0,6.2-3.8,10.8-9.7,10.8
		c-3,0-5.2-1.3-6.2-2.8v10.3H364z M374.4,63.6c-3.2,0-5.5,2.5-5.5,6.4c0,3.9,2.3,6.5,5.5,6.5c3.2,0,5.5-2.5,5.5-6.5
		C379.9,66.1,377.7,63.6,374.4,63.6z"/>
	<path class="st0" d="M389.5,80.3V49.7h4.9v30.5H389.5z"/>
	<path class="st0" d="M420.4,70c0,6.3-4.5,10.9-10.7,10.9c-6.1,0-10.6-4.6-10.6-10.9c0-6.3,4.5-10.9,10.6-10.9
		C415.9,59.1,420.4,63.7,420.4,70z M415.5,70c0-4.3-2.7-6.5-5.7-6.5c-3,0-5.7,2.2-5.7,6.5s2.7,6.5,5.7,6.5
		C412.8,76.5,415.5,74.3,415.5,70z"/>
	<path class="st0" d="M437.2,64.6c-0.5-0.1-1.1-0.1-1.6-0.1c-3.8,0-5.5,2.2-5.5,6v9.8h-4.9V59.7h4.8V63c1-2.2,3.2-3.5,5.9-3.5
		c0.6,0,1.1,0.1,1.3,0.1V64.6z"/>
	<path class="st0" d="M459.2,74.4c-1.1,3.6-4.3,6.5-9.3,6.5c-5.6,0-10.5-4-10.5-11c0-6.5,4.8-10.8,10-10.8c6.3,0,10,4.2,10,10.7
		c0,0.8-0.1,1.5-0.1,1.6h-15c0.1,3.1,2.6,5.4,5.6,5.4c2.9,0,4.5-1.6,5.1-3.6L459.2,74.4z M454.5,67.7c-0.1-2.4-1.7-4.6-5.1-4.6
		c-3.1,0-4.8,2.4-5,4.6H454.5z"/>
	<path class="st0" d="M476.2,64.6c-0.5-0.1-1.1-0.1-1.6-0.1c-3.8,0-5.5,2.2-5.5,6v9.8h-4.9V59.7h4.8V63c1-2.2,3.2-3.5,5.9-3.5
		c0.6,0,1.1,0.1,1.3,0.1V64.6z"/>
</g>
<g>
	<path class="st0" d="M64.9,41.5l21.2,12.1L86.1,78L65,90.3L43.9,78.1l-0.1-24.4L64.9,41.5 M64.9,23.5L57.1,28L36,40.3l-7.8,4.5l0,9
		l0.1,24.4l0,9l7.8,4.5l21.2,12.1l7.8,4.5l7.8-4.5l21.1-12.2l7.8-4.5l0-9l-0.1-24.4l0-9l-7.8-4.5L72.7,28L64.9,23.5L64.9,23.5z"/>
</g>
</svg>
