<?xml version="1.0" encoding="utf-8"?>
<!-- Generator: Adobe Illustrator 23.0.2, SVG Export Plug-In . SVG Version: 6.00 Build 0)  -->
<svg version="1.1" id="Layer_1" xmlns="http://www.w3.org/2000/svg" xmlns:xlink="http://www.w3.org/1999/xlink" x="0px" y="0px"
	 viewBox="0 0 304 69" style="enable-background:new 0 0 304 69;" xml:space="preserve">
<style type="text/css">
	.st0{enable-background:new    ;}
	.st1{fill:#2A5ADA;}
	.st2{fill-rule:evenodd;clip-rule:evenodd;fill:#2A5ADA;}
</style>
<title>Group</title>
<desc>Created with Sketch.</desc>
<g id="Stats">
	<g id="Stats-Index-Copy" transform="translate(-926.000000, -450.000000)">
		<g id="Group" transform="translate(926.000000, 450.000000)">
			<g id="Group-2" transform="translate(60.000000, 25.000000)">
				<g id="Clip-1">
				</g>
			</g>
			<g id="Page-1">
				<g transform="translate(80.000000, 14.000000)">
					<g class="st0">
						<path class="st1" d="M1.4,21.3c0-7.6,5.7-12.2,11.8-12.2c5.9,0,9.5,3.5,10.5,7.6L20,18c-0.7-2.8-2.9-5.1-6.8-5.1
							c-3.9,0-7.7,2.8-7.7,8.5c0,5.5,3.8,8.4,7.8,8.4c3.9,0,6.2-2.5,7-5.1l3.6,1.2c-1.1,4-4.6,7.8-10.6,7.8
							C6.9,33.5,1.4,28.9,1.4,21.3z"/>
						<path class="st1" d="M30.8,33h-3.8V9.1h3.8v9.4c1.1-1.4,2.9-2,4.6-2c4,0,5.9,2.8,5.9,6.4V33h-3.8v-9.5c0-2-0.9-3.6-3.3-3.6
							c-2.1,0-3.3,1.6-3.3,3.6V33z"/>
						<path class="st1" d="M49.5,23.8l4.1-0.6c0.9-0.1,1.2-0.6,1.2-1.2c0-1.4-0.9-2.4-3-2.4c-2,0-3.1,1.3-3.3,2.9L45,21.7
							c0.3-2.8,2.8-5.2,6.8-5.2c5,0,6.8,2.8,6.8,6v8c0,1.5,0.2,2.4,0.2,2.6h-3.6c0-0.1-0.2-0.8-0.2-2c-0.8,1.2-2.3,2.5-5,2.5
							c-3.4,0-5.4-2.3-5.4-4.9C44.6,25.8,46.8,24.2,49.5,23.8z M54.8,26.3v-0.7l-4.2,0.6c-1.2,0.2-2.1,0.9-2.1,2.2
							c0,1.1,0.8,2.1,2.3,2.1C53,30.5,54.8,29.5,54.8,26.3z"/>
						<path class="st1" d="M64.8,8.8c1.4,0,2.5,1.1,2.5,2.5c0,1.4-1.1,2.5-2.5,2.5c-1.4,0-2.5-1.1-2.5-2.5
							C62.4,9.9,63.5,8.8,64.8,8.8z M63,33V16.9h3.8V33H63z"/>
						<path class="st1" d="M75.3,33h-3.8V16.9h3.7v2.1c1.1-1.8,3-2.6,4.8-2.6c3.9,0,5.8,2.8,5.8,6.4V33h-3.8v-9.5
							c0-2-0.9-3.6-3.3-3.6c-2.2,0-3.3,1.7-3.3,3.8V33z"/>
						<path class="st1" d="M90.2,33V9.1H94V33H90.2z"/>
						<path class="st1" d="M100.6,8.8c1.4,0,2.5,1.1,2.5,2.5c0,1.4-1.1,2.5-2.5,2.5c-1.4,0-2.5-1.1-2.5-2.5
							C98.1,9.9,99.3,8.8,100.6,8.8z M98.7,33V16.9h3.8V33H98.7z"/>
						<path class="st1" d="M111.1,33h-3.8V16.9h3.7v2.1c1.1-1.8,3-2.6,4.8-2.6c3.9,0,5.8,2.8,5.8,6.4V33h-3.8v-9.5
							c0-2-0.9-3.6-3.3-3.6c-2.2,0-3.3,1.7-3.3,3.8V33z"/>
						<path class="st1" d="M134.4,23.7l6.7,9.3h-4.7l-4.7-6.6l-2,2.1V33H126V9.1h3.8v14.3l6.2-6.5h5.1L134.4,23.7z"/>
						<path class="st1" d="M163.8,16.2c-0.2-1.5-1.5-3.6-4.6-3.6c-2.4,0-4,1.6-4,3.4c0,1.5,0.9,2.6,2.7,3l3.4,0.7
							c4.1,0.8,6.3,3.4,6.3,6.7c0,3.6-2.9,7.1-8.3,7.1c-5.9,0-8.7-3.8-9-7.2l3.7-1.1c0.2,2.4,2,4.7,5.3,4.7c2.8,0,4.3-1.4,4.3-3.2
							c0-1.5-1.1-2.7-3.1-3.2l-3.3-0.7c-3.6-0.7-5.9-3.1-5.9-6.6c0-3.9,3.6-7.2,8-7.2c5.5,0,7.7,3.4,8.2,6L163.8,16.2z"/>
						<path class="st1" d="M176,16.9h3.3v3.4H176v7.5c0,1.4,0.6,2,2,2c0.5,0,1.2-0.1,1.3-0.1v3.2c-0.2,0.1-1,0.4-2.3,0.4
							c-3,0-4.8-1.8-4.8-4.8v-8.1h-3v-3.4h0.8c1.7,0,2.5-1.1,2.5-2.5V12h3.5V16.9z"/>
						<path class="st1" d="M186.9,23.8l4.1-0.6c0.9-0.1,1.2-0.6,1.2-1.2c0-1.4-0.9-2.4-3-2.4c-2,0-3.1,1.3-3.3,2.9l-3.5-0.8
							c0.3-2.8,2.8-5.2,6.8-5.2c5,0,6.8,2.8,6.8,6v8c0,1.5,0.2,2.4,0.2,2.6h-3.6c0-0.1-0.2-0.8-0.2-2c-0.8,1.2-2.3,2.5-5,2.5
							c-3.4,0-5.4-2.3-5.4-4.9C182,25.8,184.1,24.2,186.9,23.8z M192.2,26.3v-0.7l-4.2,0.6c-1.2,0.2-2.1,0.9-2.1,2.2
							c0,1.1,0.8,2.1,2.3,2.1C190.3,30.5,192.2,29.5,192.2,26.3z"/>
						<path class="st1" d="M205.1,16.9h3.3v3.4h-3.3v7.5c0,1.4,0.6,2,2,2c0.5,0,1.2-0.1,1.3-0.1v3.2c-0.2,0.1-1,0.4-2.3,0.4
							c-3,0-4.8-1.8-4.8-4.8v-8.1h-3v-3.4h0.8c1.7,0,2.5-1.1,2.5-2.5V12h3.5V16.9z"/>
						<path class="st1" d="M214.3,27.7c0.1,1.5,1.2,2.7,3.3,2.7c1.6,0,2.4-0.9,2.4-1.8c0-0.9-0.6-1.5-1.9-1.8l-2.4-0.5
							c-2.8-0.6-4.3-2.5-4.3-4.7c0-2.8,2.6-5.2,5.9-5.2c4.5,0,5.9,2.9,6.2,4.5l-3.2,0.9c-0.1-0.9-0.8-2.4-3-2.4
							c-1.4,0-2.3,0.9-2.3,1.8c0,0.9,0.6,1.5,1.6,1.7l2.4,0.5c3,0.7,4.6,2.5,4.6,4.9c0,2.4-2,5.1-6.1,5.1c-4.7,0-6.4-3-6.6-4.9
							L214.3,27.7z"/>
					</g>
				</g>
				<g id="Fill-3">
					<path class="st2" d="M29.9,0l-6.3,3.7l-17.2,10L0,17.3l0,7.3l0,19.9l0,7.3l6.4,3.6l17.3,9.9l6.4,3.6l6.3-3.7l17.2-10l6.3-3.7
						l0-7.3l0-19.9l0-7.3l-6.4-3.6L36.3,3.6L29.9,0z M12.8,44.5l0-19.9l17.2-10l17.3,9.9l0,19.9L30,54.4L12.8,44.5z"/>
				</g>
			</g>
		</g>
	</g>
</g>
</svg>
