<svg id="Layer_1" data-name="Layer 1" xmlns="http://www.w3.org/2000/svg" viewBox="0 0 500 148.36"><defs><style>.cls-1{fill:#2a5ada;}</style></defs><title>Artboard 1</title><path class="cls-1" d="M142.75,73.62c0-12.18,9.13-19.52,18.83-19.52,9.5,0,15.14,5.6,16.83,12.13l-6,2c-1.11-4.54-4.59-8.18-10.87-8.18s-12.34,4.49-12.34,13.56c0,8.75,6,13.39,12.39,13.39a11.15,11.15,0,0,0,11.13-8.22l5.8,1.9c-1.68,6.32-7.38,12.39-16.93,12.39C151.56,93.08,142.75,85.8,142.75,73.62Z"/><path class="cls-1" d="M190.07,92.29H184V54.1h6.12v15a9.14,9.14,0,0,1,7.33-3.21c6.33,0,9.39,4.53,9.39,10.17V92.29h-6.12V77.1c0-3.17-1.43-5.7-5.27-5.7-3.38,0-5.23,2.53-5.33,5.8Z"/><path class="cls-1" d="M220.4,77.57l6.59-1c1.48-.21,1.9-.95,1.9-1.84,0-2.17-1.48-3.91-4.85-3.91a5,5,0,0,0-5.28,4.64l-5.59-1.26c.48-4.43,4.49-8.39,10.81-8.39,7.92,0,10.92,4.49,10.92,9.6V88.17a23.35,23.35,0,0,0,.32,4.12h-5.7a14.7,14.7,0,0,1-.26-3.27,9,9,0,0,1-7.91,4.06c-5.38,0-8.71-3.69-8.71-7.75C212.64,80.74,216,78.21,220.4,77.57Zm8.49,4.07V80.47l-6.7,1c-1.9.31-3.43,1.37-3.43,3.48,0,1.74,1.32,3.32,3.75,3.32C225.94,88.28,228.89,86.64,228.89,81.64Z"/><path class="cls-1" d="M245.3,53.58a4,4,0,0,1,4,4,4,4,0,1,1-4-4Zm-3,38.71V66.6h6.07V92.29Z"/><path class="cls-1" d="M262.39,92.29h-6.12V66.6h6V70a8.52,8.52,0,0,1,7.59-4.16c6.28,0,9.28,4.53,9.28,10.17V92.29H273V77.1c0-3.17-1.43-5.7-5.28-5.7-3.48,0-5.32,2.69-5.32,6.07Z"/><path class="cls-1" d="M286.55,92.29V54.1h6.11V92.29Z"/><path class="cls-1" d="M303.58,53.58a4,4,0,0,1,4,4,4,4,0,1,1-4-4Zm-3,38.71V66.6h6.06V92.29Z"/><path class="cls-1" d="M320.67,92.29h-6.11V66.6h6V70a8.51,8.51,0,0,1,7.59-4.16c6.28,0,9.28,4.53,9.28,10.17V92.29h-6.12V77.1c0-3.17-1.42-5.7-5.27-5.7-3.48,0-5.33,2.69-5.33,6.07Z"/><path class="cls-1" d="M358.33,77.47l10.76,14.82H361.6l-7.54-10.5-3.16,3.33v7.17h-6.07V54.1h6.07V77l9.86-10.39h8.12Z"/><path class="cls-1" d="M387.13,92.29V54.9h6.44V92.29Z"/><path class="cls-1" d="M408.13,92.29H402V66.6h6V70a8.53,8.53,0,0,1,7.59-4.16c6.28,0,9.29,4.53,9.29,10.17V92.29h-6.12V77.1c0-3.17-1.43-5.7-5.28-5.7-3.48,0-5.32,2.69-5.32,6.07Z"/><path class="cls-1" d="M439.88,63.23V66.6h6v5.33h-6V92.29h-6.17V71.93h-4.48V66.6h4.48V63.07c0-5.75,3.69-9.23,9-9.23a8.74,8.74,0,0,1,3.22.53v5.22a7.77,7.77,0,0,0-2.22-.26C442.05,59.33,439.88,60.06,439.88,63.23Z"/><path class="cls-1" d="M474.59,79.42c0,7.91-5.65,13.66-13.35,13.66S448,87.33,448,79.42s5.65-13.61,13.29-13.61S474.59,71.56,474.59,79.42Zm-6.17,0c0-5.33-3.38-8.07-7.18-8.07s-7.17,2.74-7.17,8.07,3.43,8.18,7.17,8.18S468.42,84.8,468.42,79.42Z"/><path class="cls-1" d="M70.28,43.79,96.74,59l.07,30.51L70.42,104.8,44,89.61,43.89,59.1,70.28,43.79m0-22.42L60.53,27,34.15,42.31l-9.7,5.63,0,11.21.07,30.51,0,11.21,9.72,5.58,26.46,15.19,9.72,5.59,9.7-5.63,26.39-15.32,9.69-5.63,0-11.21-.07-30.5,0-11.22-9.72-5.58L80,27l-9.72-5.58Z"/></svg>