<?xml version="1.0" encoding="UTF-8"?>
<svg width="121px" height="44px" viewBox="0 0 121 44" version="1.1" xmlns="http://www.w3.org/2000/svg" xmlns:xlink="http://www.w3.org/1999/xlink">
    <!-- Generator: Sketch 49.3 (51167) - http://www.bohemiancoding.com/sketch -->
    <title>Chain Link Logo</title>
    <desc>Created with Sketch.</desc>
    <defs>
        <polygon id="path-1" points="0.7573 0.0646589825 70.227 0.0646589825 70.227 20.064659 0.7573 20.064659"></polygon>
    </defs>
    <g id="Symbols" stroke="none" stroke-width="1" fill="none" fill-rule="evenodd">
        <g id="App-Header" transform="translate(-25.000000, -18.000000)">
            <g id="Chain-Link-Logo" transform="translate(25.000000, 18.000000)">
                <g id="Group-2" transform="translate(51.000000, 10.612900)">
                    <mask id="mask-2" fill="white">
                        <use xlink:href="#path-1"></use>
                    </mask>
                    <g id="Clip-1"></g>
                    <path d="M7.1573,16.304659 C4.1013,16.304659 1.4293,14.096659 1.4293,10.400659 C1.4293,6.70465898 4.1973,4.48065898 7.1413,4.48065898 C10.0213,4.48065898 11.7333,6.17665898 12.2453,8.16065898 L10.4373,8.76865898 C10.1013,7.39265898 9.0453,6.28865898 7.1413,6.28865898 C5.2693,6.28865898 3.3973,7.64865898 3.3973,10.400659 C3.3973,13.056659 5.2213,14.464659 7.1573,14.464659 C9.0613,14.464659 10.1493,13.248659 10.5333,11.968659 L12.2933,12.544659 C11.7813,14.464659 10.0533,16.304659 7.1573,16.304659 Z M15.6213,11.488659 L15.6213,16.064659 L13.7653,16.064659 L13.7653,4.48065898 L15.6213,4.48065898 L15.6213,9.02465898 C16.1493,8.33665898 17.0293,8.04865898 17.8453,8.04865898 C19.7653,8.04865898 20.6933,9.42465898 20.6933,11.136659 L20.6933,16.064659 L18.8373,16.064659 L18.8373,11.456659 C18.8373,10.496659 18.4053,9.72865898 17.2373,9.72865898 C16.2133,9.72865898 15.6533,10.496659 15.6213,11.488659 Z M22.4693,13.952659 C22.4693,12.560659 23.4933,11.792659 24.8213,11.600659 L26.8213,11.296659 C27.2693,11.232659 27.3973,11.008659 27.3973,10.736659 C27.3973,10.080659 26.9493,9.55265898 25.9253,9.55265898 C24.9493,9.55265898 24.4053,10.176659 24.3253,10.960659 L22.6293,10.576659 C22.7733,9.23265898 23.9893,8.03265898 25.9093,8.03265898 C28.3093,8.03265898 29.2213,9.39265898 29.2213,10.944659 L29.2213,14.816659 C29.2213,15.520659 29.3013,15.984659 29.3173,16.064659 L27.5893,16.064659 C27.5733,16.016659 27.5093,15.696659 27.5093,15.072659 C27.1413,15.664659 26.3733,16.304659 25.1093,16.304659 C23.4773,16.304659 22.4693,15.184659 22.4693,13.952659 Z M25.4613,14.848659 C26.5013,14.848659 27.3973,14.352659 27.3973,12.832659 L27.3973,12.480659 L25.3653,12.784659 C24.7893,12.880659 24.3253,13.200659 24.3253,13.840659 C24.3253,14.368659 24.7253,14.848659 25.4613,14.848659 Z M33.3013,16.064659 L31.4613,16.064659 L31.4613,8.27265898 L33.3013,8.27265898 L33.3013,16.064659 Z M31.1733,5.53665898 C31.1733,4.86465898 31.7173,4.32065898 32.3733,4.32065898 C33.0453,4.32065898 33.5893,4.86465898 33.5893,5.53665898 C33.5893,6.20865898 33.0453,6.73665898 32.3733,6.73665898 C31.7173,6.73665898 31.1733,6.20865898 31.1733,5.53665898 Z M37.5573,11.568659 L37.5573,16.064659 L35.7013,16.064659 L35.7013,8.27265898 L37.5093,8.27265898 L37.5093,9.31265898 C38.0213,8.41665898 38.9493,8.04865898 39.8133,8.04865898 C41.7173,8.04865898 42.6293,9.42465898 42.6293,11.136659 L42.6293,16.064659 L40.7733,16.064659 L40.7733,11.456659 C40.7733,10.496659 40.3413,9.72865898 39.1733,9.72865898 C38.1173,9.72865898 37.5573,10.544659 37.5573,11.568659 Z M46.7413,16.064659 L44.8853,16.064659 L44.8853,4.48065898 L46.7413,4.48065898 L46.7413,16.064659 Z M50.9813,16.064659 L49.1413,16.064659 L49.1413,8.27265898 L50.9813,8.27265898 L50.9813,16.064659 Z M48.8533,5.53665898 C48.8533,4.86465898 49.3973,4.32065898 50.0533,4.32065898 C50.7253,4.32065898 51.2693,4.86465898 51.2693,5.53665898 C51.2693,6.20865898 50.7253,6.73665898 50.0533,6.73665898 C49.3973,6.73665898 48.8533,6.20865898 48.8533,5.53665898 Z M55.2373,11.568659 L55.2373,16.064659 L53.3813,16.064659 L53.3813,8.27265898 L55.1893,8.27265898 L55.1893,9.31265898 C55.7013,8.41665898 56.6293,8.04865898 57.4933,8.04865898 C59.3973,8.04865898 60.3093,9.42465898 60.3093,11.136659 L60.3093,16.064659 L58.4533,16.064659 L58.4533,11.456659 C58.4533,10.496659 58.0213,9.72865898 56.8533,9.72865898 C55.7973,9.72865898 55.2373,10.544659 55.2373,11.568659 Z M69.8613,8.27265898 L66.6613,11.568659 L69.9253,16.064659 L67.6533,16.064659 L65.3653,12.880659 L64.4053,13.888659 L64.4053,16.064659 L62.5653,16.064659 L62.5653,4.48065898 L64.4053,4.48065898 L64.4053,11.424659 L67.3973,8.27265898 L69.8613,8.27265898 Z" id="Chainlink" fill="#FFFFFF" mask="url(#mask-2)"></path>
                </g>
                <path d="M18.8604,-0.0002 L14.8664,2.3178 L3.9954,8.6278 L0.0004,10.9468 L0.0104,15.5648 L0.0394,28.1348 L0.0504,32.7548 L4.0564,35.0538 L14.9574,41.3138 L18.9614,43.6128 L22.9564,41.2938 L33.8274,34.9848 L37.8224,32.6658 L37.8104,28.0468 L37.7834,15.4778 L37.7724,10.8588 L33.7664,8.5588 L22.8664,2.2998 L18.8604,-0.0002 Z M8.0394,28.1168 L8.0104,15.5478 L18.8814,9.2378 L29.7824,15.4958 L29.8114,28.0658 L18.9404,34.3758 L8.0394,28.1168 Z" id="Fill-3" fill="#FFFFFF"></path>
            </g>
        </g>
    </g>
</svg>