<svg width="1251" height="218" viewBox="0 0 1251 218" xmlns="http://www.w3.org/2000/svg" preserveAspectRatio="xMinYMid">
  <g transform="translate(-1 1)" fill="none" fill-rule="evenodd">
   <path d="M689.38 136.14v6.56M692.66 139.42h-6.56M943.69 90.54v5.34M946.36 93.21h-5.34M181.744 190.759v6.56M185.024 194.039h-6.56M813.5 105.98v6.56M816.78 109.26h-6.56M1060.86 150.05v4.27M1062.99 152.18h-4.27M292.319 130.434l-6.337-1.698M290 126.417l-1.696 6.327M222.03 102.7v6.56M225.31 105.98h-6.55M74.74 134.22v4.66M77.07 136.55h-4.66M138.09 163.19v6.56M141.37 166.47h-6.56M1018.81 44.89v6.56M1022.08 48.17h-6.55M1122.5 76.28v3.04M1124.02 77.8h-3.04" stroke="#878E9E" stroke-width=".7"/>
    <circle fill="#375BD2" fill-rule="nonzero" cx="725.42" cy="213.56" r="2.9"/>
    <circle fill="#375BD2" fill-rule="nonzero" cx="160.22" cy="27.81" r="2.46"/>
    <circle fill="#375BD2" fill-rule="nonzero" cx="852.55" cy="14.12" r="2.02"/>
    <path stroke="#375BD2" stroke-width=".7" d="M286.694 3.135l2.863-2.864 2.864 2.864L289.557 6zM914.325 183.334l2.864-2.864 2.864 2.864-2.864 2.864zM702.792 31.53l2.864-2.864 2.864 2.863-2.864 2.864z"/>
    <path d="M731.96 210.05L937.15 96.82M1118.44 165.88L1252 139.42M285.115 131.972l-99.091 58.787M1023.71 49.34l94.73 27.29M16.5 57.5l200.6 47.16M0 278.2l50.07-38.45M854.6 19.51l60.53 158.44" stroke="#CCD2DB" stroke-width=".7"/>
  </g>
</svg>
