<?xml version="1.0" encoding="UTF-8"?>
<svg width="27px" height="33px" viewBox="0 0 27 33" version="1.1" xmlns="http://www.w3.org/2000/svg" xmlns:xlink="http://www.w3.org/1999/xlink">
    <!-- Generator: Sketch 51.2 (57519) - http://www.bohemiancoding.com/sketch -->
    <title>Fill 1</title>
    <desc>Created with Sketch.</desc>
    <defs></defs>
    <g id="Operator" stroke="none" stroke-width="1" fill="none" fill-rule="evenodd">
        <g id="Profile-Avatar" transform="translate(-662.000000, -93.000000)" fill="#FFFFFF">
            <g id="Group-Copy-3" transform="translate(645.000000, 79.000000)">
                <g id="Page-1" transform="translate(17.525000, 14.744792)">
                    <path d="M12.2148929,32.0403226 L10.2982746,32.0403226 L10.2982746,30.0434911 L9.07649211,30.0434911 C5.58785172,30.0434911 2.75983447,27.1886879 2.75983447,23.6677995 L2.75983447,21.665984 L2.70022672,21.665984 C1.79658739,21.665984 0.977245397,21.2316581 0.462996314,20.4772837 C-0.034322759,19.7488977 -0.121089065,18.8101128 0.155081739,17.9702972 L3.17038724,8.78857508 C3.17038724,8.78715106 3.17073994,8.78643905 3.17109265,8.78572704 C4.67080946,3.19431421 9.90641535,-0.481436297 15.6541541,0.0511470212 C21.251639,0.56415007 25.7218673,5.03165546 26.2840847,10.672553 C26.4526794,12.3603722 26.2773833,14.020067 25.7634869,15.6053567 L25.7264525,15.7203463 C24.1801782,20.5324645 23.6518207,25.6304545 24.1547831,30.8708465 L24.2669445,32.0403226 L22.3415084,32.0403226 L22.2473352,31.0573931 C21.7186251,25.5510654 22.2762573,20.1896317 23.9043601,15.1215461 L23.9410417,15.0069125 C24.3724043,13.6765222 24.5187784,12.2841871 24.3773422,10.8662196 C23.9071817,6.14559476 20.1652966,2.4075434 15.4806215,1.97713349 C10.6456925,1.53924747 6.24388965,4.63221797 5.00729343,9.34429872 C4.99671217,9.38417127 4.98401466,9.4233318 4.96849549,9.46035631 L1.94296144,18.6730509 C1.86148576,18.9218983 1.90169454,19.186054 2.05335922,19.3982329 C2.20537661,19.6100558 2.44133864,19.7318095 2.70022672,19.7318095 L4.6764528,19.7318095 L4.6764528,23.6677995 C4.6764528,26.1203172 6.64668282,28.1089606 9.07649211,28.1089606 C9.07649211,28.1089606 11.2202547,28.1036205 11.2565837,28.1043325 C11.5087704,28.1043325 11.7510811,28.2054379 11.9309625,28.3845083 C12.1126074,28.5660708 12.2148929,28.8138502 12.2148929,29.0715978 L12.2148929,32.0403226 Z M8.56229039,13.3501344 C7.47149758,13.3501344 6.58653846,14.2465633 6.58653846,15.3524421 C6.58653846,16.4587458 7.47149758,17.3551747 8.56229039,17.3551747 C9.65350242,17.3551747 10.5384615,16.4587458 10.5384615,15.3524421 C10.5384615,14.2465633 9.65350242,13.3501344 8.56229039,13.3501344 Z" id="Fill-1"></path>
                </g>
            </g>
        </g>
    </g>
</svg>