<?xml version="1.0" encoding="UTF-8"?>
<svg width="150px" height="45px" viewBox="0 0 150 45" version="1.1" xmlns="http://www.w3.org/2000/svg" xmlns:xlink="http://www.w3.org/1999/xlink">
    <title>Loopring</title>
    <g id="Aggregator" stroke="none" stroke-width="1" fill="none" fill-rule="evenodd">
        <g id="Landing-Page-Listing-Option-modules" transform="translate(-733.000000, -2070.000000)" fill="#1C42FF" fill-rule="nonzero">
            <g id="loopring" transform="translate(733.233333, 2070.000000)">
                <g id="Fill-17" transform="translate(59.368750, 21.556510)">
                    <path d="M0.00169625,0.484244036 L0.00169625,23.2337836 L8.67942854,23.2337836 L8.67942854,20.1140972 L3.6740775,20.1140972 L3.6740775,0.484244036 L0.00169625,0.484244036 Z M90.0612629,8.60914018 L90.0612629,4.83957794 C90.0612629,2.07681076 88.2088166,0.289033932 84.8611965,0.289033932 C81.5139298,0.289033932 79.6614835,2.10896883 79.6614835,4.83957794 L79.6614835,18.8788738 C79.6614835,21.6087761 81.5139298,23.4294178 84.8611965,23.4294178 C88.2088166,23.4294178 90.0612629,21.641641 90.0612629,18.8788738 L90.0612629,11.8917373 L84.9262194,11.8917373 L84.9262194,15.0114238 L86.486416,15.0114238 L86.486416,18.8788738 C86.486416,19.7566832 85.8040288,20.2114902 84.8611965,20.2114902 C83.8536947,20.2114902 83.3667296,19.7566832 83.3667296,18.8788738 L83.3667296,4.83957794 C83.1062845,3.05180112 86.583597,3.11682404 86.486416,4.83957794 L86.486416,8.60914018 L90.0612629,8.60914018 Z M73.8762815,7.17906008 C73.8762815,8.93432544 73.9091464,10.8514413 73.9734625,12.9311145 L70.5936844,0.484173359 L66.5965419,0.484173359 L66.5965419,23.2340663 L69.9438086,23.2340663 L69.9438086,16.5391796 C69.9438086,14.6867333 69.9112971,12.7038877 69.8466276,10.5588382 L73.3239401,23.2340663 L77.2242549,23.2340663 L77.2242549,0.484173359 L73.8762815,0.484173359 L73.8762815,7.17906008 Z M60.2589279,23.234031 L63.9313091,23.234031 L63.9313091,0.484491406 L60.2589279,0.484491406 L60.2589279,23.234031 Z M54.1912649,10.071343 C54.1912649,10.9491524 53.7364579,11.4039594 52.8590019,11.4039594 L51.2016243,11.4039594 L51.2016243,3.60403651 L52.8590019,3.60403651 C53.7364579,3.60403651 54.1912649,4.05919693 54.1912649,4.93665292 L54.1912649,10.071343 Z M57.8643529,10.071343 L57.8643529,4.93665292 C57.8643529,2.17388573 56.1419524,0.484350052 52.8590019,0.484350052 L47.529243,0.484350052 L47.529243,23.2338896 L51.2016243,23.2338896 L51.2016243,14.5243527 L52.3398787,14.5243527 L54.6612675,23.2338896 L58.3340022,23.2338896 L55.8369808,13.8677626 C57.1734845,13.1344878 57.8643529,11.8181271 57.8643529,10.071343 Z M42.0250178,10.071343 C42.0250178,10.9491524 41.5702108,11.4039594 40.6927548,11.4039594 L39.0353772,11.4039594 L39.0353772,3.60403651 L40.6927548,3.60403651 C41.5702108,3.60403651 42.0250178,4.05919693 42.0250178,4.93665292 L42.0250178,10.071343 Z M40.6927548,0.484350052 L35.3629959,0.484350052 L35.3629959,23.2338896 L39.0353772,23.2338896 L39.0353772,14.5243527 L40.6927548,14.5243527 C43.9757053,14.5243527 45.6981058,12.8337568 45.6981058,10.071343 L45.6981058,4.93665292 C45.6981058,2.17388573 43.9757053,0.484350052 40.6927548,0.484350052 Z M29.2523967,18.8787324 C29.447112,20.6343512 26.0019576,20.6343512 26.2298912,18.8787324 L26.2298912,4.83943659 C26.0019576,3.08417122 29.447112,3.08417122 29.2523967,4.83943659 L29.2523967,18.8787324 Z M27.7243581,0.289245964 C24.3770915,0.289245964 22.5246451,2.10882747 22.5246451,4.83943659 L22.5246451,18.8787324 C22.5246451,21.6089882 24.3770915,23.4292764 27.7243581,23.4292764 C31.0719782,23.4292764 32.9247779,21.6414996 32.9247779,18.8787324 L32.9247779,4.83943659 C32.9247779,2.0766694 31.0719782,0.289245964 27.7243581,0.289245964 Z M16.6744555,18.8787324 C16.8691709,20.6343512 13.4243699,20.6343512 13.6523035,18.8787324 L13.6523035,4.83943659 C13.4243699,3.08417122 16.8691709,3.08417122 16.6744555,4.83943659 L16.6744555,18.8787324 Z M15.1467704,0.289245964 C11.7995037,0.289245964 9.94705737,2.10882747 9.94705737,4.83943659 L9.94705737,18.8787324 C9.94705737,21.6089882 11.7995037,23.4292764 15.1467704,23.4292764 C18.4940371,23.4292764 20.3471902,21.6414996 20.3471902,18.8787324 L20.3471902,4.83943659 C20.3471902,2.0766694 18.4940371,0.289245964 15.1467704,0.289245964 Z" id="path-1"></path>
                </g>
                <path d="M32.4143834,22.0203995 L56.0042735,22.0203995 L56.0042735,22.1628138 L19.1599565,44.6374195 L37.4448248,30.0199851 L32.4143834,22.0203995 Z M18.6559936,0.353138047 L18.6559936,44.9341219 L7.06770833e-05,30.0198438 L18.6559936,0.353138047 Z" id="Path"></path>
            </g>
        </g>
    </g>
</svg>