<?xml version="1.0" encoding="UTF-8"?>
<svg width="196px" height="23px" viewBox="0 0 196 23" version="1.1" xmlns="http://www.w3.org/2000/svg" xmlns:xlink="http://www.w3.org/1999/xlink">
    <title>Synthetix</title>
    <g id="Aggregator" stroke="none" stroke-width="1" fill="none" fill-rule="evenodd">
        <g id="Landing-Page-Listing-Option-modules" transform="translate(-487.000000, -2093.000000)" fill="#090816" fill-rule="nonzero">
            <g id="synthetix" transform="translate(487.163738, 2093.000000)">
                <path d="M40.1925102,0.389830508 L32.4460408,13.5841362 L32.4460408,22.6101695 L29.576978,22.6101695 L29.576978,13.5841362 L21.8305085,0.389830508 L25.018356,0.389830508 L31.1071447,11.0142239 L37.164055,0.389830508 L40.1925102,0.389830508 Z M60.5033996,22.6101695 L57.0286458,22.6101695 L47.9751589,4.7461452 L47.9751589,22.6101695 L45.2017316,22.6101695 L45.2017316,0.389830508 L48.7402425,0.389830508 L57.7618509,18.3478759 L57.7618509,0.389830508 L60.5033996,0.389830508 L60.5033996,22.6101695 Z M84.8603147,2.99108318 L77.2094805,2.99108318 L77.2094805,22.6101695 L74.3085395,22.6101695 L74.3085395,2.99108318 L66.6258269,2.99108318 L66.6258269,0.389830508 L84.8603147,0.389830508 L84.8603147,2.99108318 Z M106.719236,22.6101695 L103.818294,22.6101695 L103.818294,12.3618608 L94.2228733,12.3618608 L94.2228733,22.6101695 L91.3538104,22.6101695 L91.3538104,0.389830508 L94.2228733,0.389830508 L94.2228733,9.66658697 L103.818294,9.66658697 L103.818294,0.389830508 L106.719236,0.389830508 L106.719236,22.6101695 Z M129.091408,22.6101695 L114.140403,22.6101695 L114.140403,0.389830508 L129.091408,0.389830508 L129.091408,2.95974277 L116.977587,2.95974277 L116.977587,9.7292678 L126.126709,9.7292678 L126.126709,12.3618608 L116.977587,12.3618608 L116.977587,20.0402573 L129.091408,20.0402573 L129.091408,22.6101695 Z M152.89172,2.99108318 L145.240886,2.99108318 L145.240886,22.6101695 L142.339944,22.6101695 L142.339944,2.99108318 L134.657232,2.99108318 L134.657232,0.389830508 L152.89172,0.389830508 L152.89172,2.99108318 Z M171.336448,22.6101695 L158.457544,22.6101695 L158.457544,20.2909803 L163.462464,20.2909803 L163.462464,2.67767924 L158.457544,2.67767924 L158.457544,0.389830508 L171.336448,0.389830508 L171.336448,2.67767924 L166.331527,2.67767924 L166.331527,20.2909803 L171.336448,20.2909803 L171.336448,22.6101695 Z M195.305085,22.6101695 L192.085359,22.6101695 L186.41099,13.5841362 L180.800379,22.6101695 L177.644409,22.6101695 L184.817067,11.3903086 L177.644409,0.389830508 L180.896014,0.389830508 L186.538503,9.0711195 L192.117238,0.389830508 L195.273206,0.389830508 L188.132428,11.3903086 L195.305085,22.6101695 Z" id="Y-N-T-H-E-T-I-X"></path>
                <g id="logo-/-glyph-/-snx-/-light">
                    <polygon id="Stroke" opacity="0.5" points="2.69187477 22.3560792 0.362188352 20.7041549 15.0150119 0.468982498 17.3446983 2.12090688"></polygon>
                    <path d="M10.2395405,10.0809529 L11.0217247,10.0809529 C14.6229792,10.0809529 17.5423729,12.9729802 17.5423729,16.5404764 C17.5423729,20.1079728 14.6229792,23 11.0217247,23 L1.43247536,23 C0.641341137,23 0,22.364671 0,21.5809529 C0,20.7972347 0.641341137,20.1619057 1.43247536,20.1619057 L11.0217247,20.1619057 C13.0407108,20.1619057 14.6774225,18.5405367 14.6774225,16.5404764 C14.6774225,14.5404163 13.0407108,12.9190472 11.0217247,12.9190472 L7.3034443,12.9190472 L7.30283239,12.9190471 L6.52064825,12.9190471 C2.91939367,12.9190471 0,10.0270198 0,6.45952351 C0,2.8920272 2.91939367,0 6.52064825,0 L16.1098975,0 C16.9010317,0 17.5423729,0.635329039 17.5423729,1.41904712 C17.5423729,2.20276522 16.9010317,2.83809425 16.1098975,2.83809425 L6.52064825,2.83809425 C4.50166207,2.83809425 2.86495037,4.45946336 2.86495037,6.45952351 C2.86495037,8.45958369 4.50166207,10.0809528 6.52064825,10.0809528 L10.2389286,10.0809528 C10.2391326,10.0809528 10.2393365,10.0809528 10.2395405,10.0809529 L10.2395405,10.0809529 Z" id="Path"></path>
                </g>
            </g>
        </g>
    </g>
</svg>