<?xml version="1.0" encoding="UTF-8"?>
<svg width="84px" height="24px" viewBox="0 0 84 24" version="1.1" xmlns="http://www.w3.org/2000/svg" xmlns:xlink="http://www.w3.org/1999/xlink">
    <title>Aave</title>
    <defs>
        <linearGradient x1="-200%" y1="103%" x2="196%" y2="11%" id="linearGradient-1">
            <stop stop-color="#30BAC6" offset="0%"></stop>
            <stop stop-color="#B6509E" offset="100%"></stop>
        </linearGradient>
        <linearGradient x1="-405%" y1="131%" x2="118%" y2="38%" id="linearGradient-2">
            <stop stop-color="#30BAC6" offset="0%"></stop>
            <stop stop-color="#B6509E" offset="100%"></stop>
        </linearGradient>
        <linearGradient x1="-112%" y1="93%" x2="283%" y2="0%" id="linearGradient-3">
            <stop stop-color="#30BAC6" offset="0%"></stop>
            <stop stop-color="#B6509E" offset="100%"></stop>
        </linearGradient>
        <linearGradient x1="-5%" y1="68%" x2="391%" y2="-25%" id="linearGradient-4">
            <stop stop-color="#30BAC6" offset="0%"></stop>
            <stop stop-color="#B6509E" offset="100%"></stop>
        </linearGradient>
    </defs>
    <g id="Aggregator" stroke="none" stroke-width="1" fill="none" fill-rule="evenodd">
        <g id="Landing-Page-Listing-Option-modules" transform="translate(-343.000000, -2092.000000)" fill-rule="nonzero">
            <g id="aave" transform="translate(343.000000, 2091.466667)">
                <path d="M51.8266667,22.2716667 L43.8073333,2.81366667 C43.7439475,2.63640862 43.7102721,2.44989894 43.7076667,2.26166667 C43.6920731,1.86413647 43.8323765,1.47623892 44.0986667,1.18066667 C44.3773337,0.895095098 44.7659643,0.744116313 45.1643333,0.766666667 C45.4622248,0.770882557 45.7514906,0.867304514 45.9923333,1.04266667 C46.2430337,1.23048442 46.4389176,1.48195705 46.5596667,1.771 L54.188,20.8073333 L61.8163333,1.771 C61.9392104,1.48104688 62.1378146,1.22948162 62.3913333,1.04266667 C62.632176,0.867304514 62.9214419,0.770882557 63.2193333,0.766666667 C63.6150832,0.746362308 64.0004646,0.897163688 64.2773333,1.18066667 C64.5464044,1.47504271 64.6895091,1.86307664 64.676,2.26166667 C64.6733945,2.44989894 64.6397192,2.63640862 64.5763333,2.81366667 L56.557,22.2716667 C56.275511,23.1478946 55.4684871,23.7485421 54.5483333,23.7666667 L53.8353333,23.7666667 C52.9151796,23.7485421 52.1081557,23.1478946 51.8266667,22.2716667 L51.8266667,22.2716667 Z" id="Path" fill="url(#linearGradient-1)"></path>
                <path d="M68.0876667,23.1686667 C67.8130077,22.8922713 67.6634158,22.5155213 67.6736667,22.126 L67.6736667,2.42266667 C67.6638279,2.02413701 67.8127547,1.63803055 68.0876667,1.34933333 C68.3576608,1.06344989 68.737319,0.90712005 69.1303333,0.92 L82.1636667,0.92 C82.5349984,0.910955968 82.8923538,1.06171527 83.145,1.334 C83.4140477,1.58890092 83.5641702,1.94474672 83.559,2.31533333 C83.5696913,2.68253175 83.4182756,3.03583502 83.145,3.28133333 C82.8820649,3.54136618 82.5257662,3.68499042 82.156,3.68 L70.633,3.68 L70.633,10.856 L80.9983333,10.856 C81.3696651,10.846956 81.7270205,10.9977153 81.9796667,11.27 C82.2456365,11.5270218 82.3951699,11.8814714 82.3936667,12.2513333 C82.404358,12.6185318 82.2529423,12.971835 81.9796667,13.2173333 C81.7186081,13.4754669 81.3654517,13.6189367 80.9983333,13.616 L70.633,13.616 L70.633,20.8226667 L82.156,20.8226667 C82.5299787,20.8113974 82.8905717,20.9623433 83.145,21.2366667 C83.4160328,21.4933806 83.5663318,21.852428 83.559,22.2256667 C83.5696913,22.5928651 83.4182756,22.9461684 83.145,23.1916667 C82.8808094,23.4488947 82.5246645,23.5896962 82.156,23.5826667 L69.1303333,23.5826667 C68.7377779,23.6112269 68.35371,23.4587293 68.0876667,23.1686667 L68.0876667,23.1686667 Z" id="Path" fill="url(#linearGradient-2)"></path>
                <path d="M45.6243333,21.7196667 L37.5973333,2.26166667 C37.3167632,1.38805647 36.5136437,0.788024625 35.5963333,0.766666667 L34.891,0.766666667 C33.9708462,0.78479121 33.1638224,1.38543875 32.8823333,2.26166667 L29.394,10.741 L26.749,10.741 C25.9577119,10.749363 25.3194761,11.3910118 25.3153333,12.1823333 L25.3153333,12.1976667 C25.3194761,12.9889882 25.9577119,13.630637 26.749,13.639 L28.1673333,13.639 L24.84,21.7196667 C24.7766142,21.8969247 24.7429388,22.0834344 24.7403333,22.2716667 C24.7247398,22.6691969 24.8650431,23.0570944 25.1313333,23.3526667 C25.4100004,23.6382382 25.7986309,23.789217 26.197,23.7666667 C26.4948914,23.7624508 26.7841573,23.6660288 27.025,23.4906667 C27.2757003,23.3028489 27.4715843,23.0513763 27.5923333,22.7623333 L31.2646667,13.639 L33.787,13.639 C34.5782881,13.630637 35.2165239,12.9889882 35.2206667,12.1976667 L35.2206667,12.1593333 C35.2165239,11.3680118 34.5782881,10.726363 33.787,10.718 L32.4223333,10.718 L35.2436667,3.726 L42.872,22.7623333 C42.9927491,23.0513763 43.188633,23.3028489 43.4393333,23.4906667 C43.680176,23.6660288 43.9694419,23.7624508 44.2673333,23.7666667 C44.6683172,23.7914821 45.0602081,23.6403242 45.3406667,23.3526667 C45.6041807,23.0559067 45.7416856,22.6681428 45.724,22.2716667 C45.7336632,22.0831758 45.7022731,21.8948349 45.632,21.7196667 L45.6243333,21.7196667 Z" id="Path" fill="url(#linearGradient-3)"></path>
                <path d="M21.6583333,21.7196667 L13.639,2.26166667 C13.3566009,1.38280895 12.5456612,0.781541887 11.6226667,0.766666667 L10.9173333,0.766666667 C9.99717957,0.78479121 9.1901557,1.38543875 8.90866667,2.26166667 L5.42033333,10.741 L2.77533333,10.741 C1.98404519,10.749363 1.34580942,11.3910118 1.34166667,12.1823333 L1.34166667,12.1976667 C1.34580942,12.9889882 1.98404519,13.630637 2.77533333,13.639 L4.19366667,13.639 L0.866333333,21.7196667 C0.802947496,21.8969247 0.769272136,22.0834344 0.766666667,22.2716667 C0.751073111,22.6691969 0.89137648,23.0570944 1.15766667,23.3526667 C1.43633369,23.6382382 1.82496427,23.789217 2.22333333,23.7666667 C2.52122477,23.7624508 2.81049065,23.6660288 3.05133333,23.4906667 C3.30203366,23.3028489 3.49791761,23.0513763 3.61866667,22.7623333 L7.291,13.639 L9.82866667,13.639 C10.6229504,13.6348084 11.2658084,12.9919504 11.27,12.1976667 L11.27,12.1593333 C11.2658084,11.3650496 10.6229504,10.7221916 9.82866667,10.718 L8.47166667,10.718 L11.27,3.726 L18.8983333,22.7623333 C19.0190824,23.0513763 19.2149663,23.3028489 19.4656667,23.4906667 C19.7065094,23.6660288 19.9957752,23.7624508 20.2936667,23.7666667 C20.6946505,23.7914821 21.0865414,23.6403242 21.367,23.3526667 C21.630514,23.0559067 21.7680189,22.6681428 21.7503333,22.2716667 C21.7599965,22.0831758 21.7286064,21.8948349 21.6583333,21.7196667 L21.6583333,21.7196667 Z" id="Path" fill="url(#linearGradient-4)"></path>
            </g>
        </g>
    </g>
</svg>